<?xml version="1.0" encoding="utf-8"?>
<!-- Generator: Adobe Illustrator 27.3.1, SVG Export Plug-In . SVG Version: 6.00 Build 0)  -->
<svg version="1.1" id="Layer_1" xmlns="http://www.w3.org/2000/svg" xmlns:xlink="http://www.w3.org/1999/xlink" x="0px" y="0px"
	 viewBox="0 0 1440 960" style="enable-background:new 0 0 1440 960;" xml:space="preserve">
<style type="text/css">
	.st0{fill:url(#SVGID_1_);}
	.st1{fill:url(#SVGID_00000001633450427126953780000014360860975781629573_);}
	.st2{fill:url(#SVGID_00000110448055657674324670000016716904312839536280_);}
	.st3{fill:url(#SVGID_00000088816363745784576110000010165807639324126140_);}
	.st4{fill:url(#SVGID_00000163066336485814329480000018107281713243004063_);}
	.st5{fill:url(#SVGID_00000083051479937918866190000010849894306531472290_);}
	.st6{fill:url(#SVGID_00000177456842037750206300000004806364560997831321_);}
	.st7{fill:url(#SVGID_00000027581451102359809180000000169925188280821686_);}
	.st8{fill:url(#SVGID_00000019674642069870815000000008984751332294558385_);}
	.st9{fill:url(#SVGID_00000150796577763190036120000008042308219921623212_);}
	.st10{fill:url(#SVGID_00000154423119187217345820000009234582992008212927_);}
	.st11{fill:url(#SVGID_00000149374869942257092200000010537963139651669926_);}
	.st12{fill:url(#SVGID_00000083780302303175570240000001750658136569845640_);}
	.st13{fill:url(#SVGID_00000042711043122304524530000009813668984448175252_);}
	.st14{fill:#FEF305;}
	.st15{fill:url(#SVGID_00000134213996954263472420000004431273799209734287_);}
</style>
<g>
	<g>
		
			<image style="overflow:visible;enable-background:new    ;" width="610" height="753" xlink:href="F8450373.png"  transform="matrix(0.9976 0 0 0.9976 405.2098 21.9932)">
		</image>
		<g>
			<g>
				<g>
					
						<linearGradient id="SVGID_1_" gradientUnits="userSpaceOnUse" x1="662.5263" y1="1016.8597" x2="996.4252" y2="1016.8597" gradientTransform="matrix(1 0 0 1 0 -456.0001)">
						<stop  offset="0" style="stop-color:#084B02"/>
						<stop  offset="0.2926" style="stop-color:#0F7601"/>
						<stop  offset="0.6964" style="stop-color:#5EB307"/>
						<stop  offset="1" style="stop-color:#ADF20E"/>
					</linearGradient>
					<path class="st0" d="M961.3,365.6c0,0,5.9,115.6-153.9,191c-159.7,75.4-152.9,120.5-137.2,191c9.9,2.7,24.2,5.9,41.7,7.5
						c76.5,7,135.3-24,152.8-33.5c66.1-36.1,99.5-89.1,112.3-112.2C977,609.6,1029.8,496.9,961.3,365.6z M808,723.6
						c118.3-70.2,157.8-181.5,157.8-181.5C949.3,693.1,808,723.6,808,723.6z"/>
					
						<linearGradient id="SVGID_00000137114288037225287440000009931669943800332435_" gradientUnits="userSpaceOnUse" x1="472.5944" y1="918.9998" x2="555.8065" y2="671.4434" gradientTransform="matrix(1 0 0 1 0 -456.0001)">
						<stop  offset="0" style="stop-color:#0A6113"/>
						<stop  offset="4.350702e-03" style="stop-color:#0B6213"/>
						<stop  offset="0.4896" style="stop-color:#63A90B"/>
						<stop  offset="0.8304" style="stop-color:#9BD607"/>
						<stop  offset="0.9947" style="stop-color:#B0E705"/>
					</linearGradient>
					<path style="fill:url(#SVGID_00000137114288037225287440000009931669943800332435_);" d="M588.7,226.5
						c-4.7,6.1-11.8,15.1-20.9,25.7c-31.2,36.7-57.3,59.4-65.3,66.9c-22.1,20.7-48.6,58.1-66.2,131.7c39.1-45.7,78.1-91.3,117.3-137
						C553.6,313.9,587.5,276.5,588.7,226.5z"/>
					
						<linearGradient id="SVGID_00000088851735027614665220000015060959250283805867_" gradientUnits="userSpaceOnUse" x1="825.1346" y1="787.1" x2="892.6361" y2="787.1" gradientTransform="matrix(1 0 0 1 0 -456.0001)">
						<stop  offset="0" style="stop-color:#0F7601"/>
						<stop  offset="1" style="stop-color:#ADF20E"/>
					</linearGradient>
					<path style="fill:url(#SVGID_00000088851735027614665220000015060959250283805867_);" d="M881.4,229c0,0,11.3,57.8-23.5,99.9
						c-34.8,42.2-36.3,80.3-29.9,104.3c1.3-5.4,3.5-13.4,7.8-22.4c10.3-21.6,22.8-28.9,33.6-42.5c17.7-22.3,20.4-47.7,22.3-65.4
						C895.2,269.8,887,243.4,881.4,229z"/>
					
						<linearGradient id="SVGID_00000106851048819906514230000005358511157213289642_" gradientUnits="userSpaceOnUse" x1="873.7484" y1="869.9714" x2="909.5079" y2="712.7269" gradientTransform="matrix(1 0 0 1 0 -456.0001)">
						<stop  offset="0" style="stop-color:#0F7601"/>
						<stop  offset="1" style="stop-color:#ADF20E"/>
					</linearGradient>
					<path style="fill:url(#SVGID_00000106851048819906514230000005358511157213289642_);" d="M840,403c0,0-13,31.7,20.9,71.8
						c0,0,0-23,35.8-60.7c35.8-37.8,39.2-102.4-15.2-185.1c0,0,22.8,53.1,1.8,115c0,0-10.5,23.4-28.2,40
						C855.1,383.8,843.1,397.4,840,403z"/>
					
						<linearGradient id="SVGID_00000003804423535417594670000011952634270858758335_" gradientUnits="userSpaceOnUse" x1="757.5723" y1="1223.5697" x2="839.0193" y2="865.4259" gradientTransform="matrix(1 0 0 1 0 -456.0001)">
						<stop  offset="0" style="stop-color:#0F7601"/>
						<stop  offset="1" style="stop-color:#ADF20E"/>
					</linearGradient>
					<path style="fill:url(#SVGID_00000003804423535417594670000011952634270858758335_);" d="M886.9,579.3c0,0,53.5-77.4,57.1-146
						c0,0-31.6,76.1-128.6,119.5S636,642.9,670.2,747.7C670.3,747.7,826,679.2,886.9,579.3z"/>
					
						<linearGradient id="SVGID_00000131325381505433248500000004646897081362837888_" gradientUnits="userSpaceOnUse" x1="778.8159" y1="1228.3782" x2="855.0112" y2="893.3284" gradientTransform="matrix(1 0 0 1 0 -456.0001)">
						<stop  offset="0" style="stop-color:#043601"/>
						<stop  offset="1" style="stop-color:#107903"/>
					</linearGradient>
					<path style="fill:url(#SVGID_00000131325381505433248500000004646897081362837888_);" d="M907.4,544.8
						c0,0-47.2,62.8-132.4,93.2c-85.1,30.4-104.7,78.3-104.7,109.7c0,0,94,2.9,135.2-22.6s145-108.7,155.8-263.6
						c0,0-3.9,170.4-213.6,239.1C747.7,700.7,880,649.6,907.4,544.8z"/>
					
						<linearGradient id="SVGID_00000071535235763516432990000000356006826305512596_" gradientUnits="userSpaceOnUse" x1="505.0041" y1="1022.991" x2="842.0933" y2="556.1866" gradientTransform="matrix(1 0 0 1 0 -456.0001)">
						<stop  offset="0" style="stop-color:#084B02"/>
						<stop  offset="0.1702" style="stop-color:#0C4F02"/>
						<stop  offset="0.3251" style="stop-color:#165A03"/>
						<stop  offset="0.4742" style="stop-color:#296C04"/>
						<stop  offset="0.6197" style="stop-color:#438606"/>
						<stop  offset="0.7626" style="stop-color:#64A809"/>
						<stop  offset="0.9014" style="stop-color:#8CD00C"/>
						<stop  offset="1" style="stop-color:#ADF20E"/>
					</linearGradient>
					<path style="fill:url(#SVGID_00000071535235763516432990000000356006826305512596_);" d="M757.5,39.1
						c0,0,137.4,160.2,53.7,282.1c0,0,13-91.1,4.7-115.4c3.3,56.5-15.8,86.2-27.5,99.9c-6.1,7.1-13,12.7-26.5,23.5
						c-34.2,27.4-58.4,41.2-80.1,55.2c-43.4,28.1-70.6,45.7-95.5,78.6c-11.7,15.5-32.9,44.2-38,86.3c-2.5,20.9-0.4,38.5,2,50.4
						c0,0-53.7-128.1,78.6-234.2c143-114.6,137.6-158,145.7-193C780.9,145,783.9,100.8,757.5,39.1z"/>
					<g>
						
							<linearGradient id="SVGID_00000062161382383493601260000000148171330145135522_" gradientUnits="userSpaceOnUse" x1="478.2001" y1="775.4" x2="779.049" y2="775.4" gradientTransform="matrix(1 0 0 1 0 -456.0001)">
							<stop  offset="0" style="stop-color:#248F01"/>
							<stop  offset="1" style="stop-color:#F4FF46"/>
						</linearGradient>
						<path style="fill:url(#SVGID_00000062161382383493601260000000148171330145135522_);" d="M757.5,39.1
							c9.3,22.1,38.9,99.7,7.4,176.5c-20.8,50.9-63.6,89.6-68.4,93.9c-15.4,13.7-20.9,15.3-47.1,37.5c-34,28.8-50.9,43.2-66.8,64.6
							c-11.5,15.4-44.7,61.2-44.1,125.1c0.3,27.4,6.7,49.4,11.7,63l-72-100.7c3.2-14.4,9.4-35.9,21.5-59.8
							c25.8-51,63.2-82.4,86.9-101.9c26.4-21.7,35.1-23.5,71.1-54.2c20.9-17.8,31.4-26.8,41.7-38.3c11.2-12.5,65.2-75.5,63.1-163.8
							C762.3,63.1,759.7,48.6,757.5,39.1z"/>
					</g>
					
						<linearGradient id="SVGID_00000121241704247574961430000013669182441649024128_" gradientUnits="userSpaceOnUse" x1="517.2328" y1="1239.2186" x2="642.1467" y2="669.0231" gradientTransform="matrix(1 0 0 1 0 -456.0001)">
						<stop  offset="0" style="stop-color:#DFFD2D"/>
						<stop  offset="5.753914e-04" style="stop-color:#DDFC2D"/>
						<stop  offset="1.866351e-02" style="stop-color:#B0D225"/>
						<stop  offset="3.788140e-02" style="stop-color:#89AD1E"/>
						<stop  offset="5.902253e-02" style="stop-color:#658C18"/>
						<stop  offset="8.186534e-02" style="stop-color:#487013"/>
						<stop  offset="0.107" style="stop-color:#2F5A0F"/>
						<stop  offset="0.1353" style="stop-color:#1D480C"/>
						<stop  offset="0.1686" style="stop-color:#103C0A"/>
						<stop  offset="0.2118" style="stop-color:#083508"/>
						<stop  offset="0.3006" style="stop-color:#063308"/>
						<stop  offset="0.4136" style="stop-color:#175D06"/>
						<stop  offset="0.5809" style="stop-color:#33A104"/>
						<stop  offset="0.6237" style="stop-color:#3CA506"/>
						<stop  offset="0.693" style="stop-color:#54B10B"/>
						<stop  offset="0.7802" style="stop-color:#7BC513"/>
						<stop  offset="0.8818" style="stop-color:#B1E01E"/>
						<stop  offset="0.984" style="stop-color:#EFFF2B"/>
					</linearGradient>
					<path style="fill:url(#SVGID_00000121241704247574961430000013669182441649024128_);" d="M757.5,39.1c0,0,41.2,123.5-147,234.4
						c0,0-207.2,124.9-186.6,257.2C444.4,663,524.6,693,599.5,733.5c0,0,51.4,20.8,82.2,17c0,0-193.9-47.9-207.9-208.4
						c26.1-105.3,71.6-163.1,108.5-196.3c38.3-34.5,70.3-45.5,117.9-101.9c50.5-59.6,59.5-100.7,62.4-118.6
						C768.5,89.1,762.8,58.4,757.5,39.1z"/>
					
						<linearGradient id="SVGID_00000001630332559552009290000012478331772235283352_" gradientUnits="userSpaceOnUse" x1="485.3652" y1="987.4" x2="612.7" y2="987.4" gradientTransform="matrix(1 0 0 1 0 -456.0001)">
						<stop  offset="0" style="stop-color:#074E02"/>
						<stop  offset="1" style="stop-color:#49B000"/>
					</linearGradient>
					<path style="fill:url(#SVGID_00000001630332559552009290000012478331772235283352_);" d="M589.9,362.4
						c0,0-119.9,132.3-32.4,258.7c0,0,19.9,52.2,55.2,79.3c0,0-201.3-152.9-97.7-278.4C515,422,562,370.5,589.9,362.4z"/>
					
						<linearGradient id="SVGID_00000104667642767869018870000000676806371291350167_" gradientUnits="userSpaceOnUse" x1="475.0113" y1="1057.4501" x2="670.2" y2="1057.4501" gradientTransform="matrix(1 0 0 1 0 -456.0001)">
						<stop  offset="0" style="stop-color:#0B8703"/>
						<stop  offset="1" style="stop-color:#D4F916"/>
					</linearGradient>
					<path style="fill:url(#SVGID_00000104667642767869018870000000676806371291350167_);" d="M492.2,455.1
						c0,0-52.2,107.3,120.5,245.4l57.5,47.3C670.3,747.7,406.3,668.2,492.2,455.1z"/>
					
						<linearGradient id="SVGID_00000181088468283810437180000015105862275410958470_" gradientUnits="userSpaceOnUse" x1="771.5456" y1="983.6185" x2="782.3225" y2="748.4865" gradientTransform="matrix(1 0 0 1 0 -456.0001)">
						<stop  offset="0" style="stop-color:#FE9C07"/>
						<stop  offset="0.2252" style="stop-color:#FEA007"/>
						<stop  offset="0.4303" style="stop-color:#FEAB06"/>
						<stop  offset="0.6275" style="stop-color:#FEBD04"/>
						<stop  offset="0.8186" style="stop-color:#FFD702"/>
						<stop  offset="1" style="stop-color:#FFF700"/>
					</linearGradient>
					<path style="fill:url(#SVGID_00000181088468283810437180000015105862275410958470_);" d="M769.7,278.4
						c0,0,83.1,133.8-9.9,254.3l-16.1,15.2c16.4-45.2,33-108.9,32.9-185.6C776.5,331.4,773.7,303.2,769.7,278.4z"/>
					
						<linearGradient id="SVGID_00000082367661852401194250000000166141491069197750_" gradientUnits="userSpaceOnUse" x1="644.8978" y1="1060.2748" x2="770.5465" y2="746.5204" gradientTransform="matrix(1 0 0 1 0 -456.0001)">
						<stop  offset="0" style="stop-color:#FDBA07"/>
						<stop  offset="0.2594" style="stop-color:#FDBE07"/>
						<stop  offset="0.4956" style="stop-color:#FDC907"/>
						<stop  offset="0.7227" style="stop-color:#FDDB06"/>
						<stop  offset="0.9429" style="stop-color:#FEF505"/>
						<stop  offset="1" style="stop-color:#FEFD05"/>
					</linearGradient>
					<path style="fill:url(#SVGID_00000082367661852401194250000000166141491069197750_);" d="M769.7,278.4c0,0,10.8,86.7-53.9,146
						s-111.4,112.7-53.3,198.9c-6.4-19.9-6-35.5-4.7-45.6c3.7-28.1,20.1-50.2,52.7-93.3c5.8-7.6,10.7-13.8,14-17.9
						c5.4-8.1,13.6-20.7,23.5-36.2c5-7.9,7.5-11.9,8.7-13.8c16.8-28,18.1-61.3,18.7-78C775.9,324.1,775.3,303.2,769.7,278.4z"/>
					
						<linearGradient id="SVGID_00000083089310924451036770000010037510569584838278_" gradientUnits="userSpaceOnUse" x1="609.0834" y1="1097.6995" x2="735.1091" y2="722.7728" gradientTransform="matrix(1 0 0 1 0 -456.0001)">
						<stop  offset="0" style="stop-color:#D84D08"/>
						<stop  offset="0.448" style="stop-color:#EA9E05"/>
						<stop  offset="0.9947" style="stop-color:#FFFD02"/>
					</linearGradient>
					<path style="fill:url(#SVGID_00000083089310924451036770000010037510569584838278_);" d="M769.7,278.4c0,0,6.9,73-96,147.2
						s-106.3,156-42.6,223.5c-7.1-12.3-15-30.3-17-52.8c-6.1-67,45.1-114.6,52.7-121.5c5.5-6.7,14.2-16.8,25.6-28.3
						c16.4-16.5,23.6-21.1,34.4-33.3c0,0,14.8-16.8,25.9-39.2C771,337.2,771.3,299.8,769.7,278.4z"/>
					<g>
						<path class="st14" d="M829.5,466.6c0,0,13.9,26.3,2.2,77.6L787,565.9C787,565.9,835.1,510,829.5,466.6z"/>
					</g>
					
						<linearGradient id="SVGID_00000035506038935439838630000002657343623858119815_" gradientUnits="userSpaceOnUse" x1="667.6265" y1="1141.1334" x2="785.1925" y2="791.3742" gradientTransform="matrix(1 0 0 1 0 -456.0001)">
						<stop  offset="0" style="stop-color:#631602"/>
						<stop  offset="0.1654" style="stop-color:#932702"/>
						<stop  offset="0.3746" style="stop-color:#CA3A02"/>
						<stop  offset="0.4761" style="stop-color:#DF4102"/>
						<stop  offset="0.5576" style="stop-color:#E25002"/>
						<stop  offset="0.715" style="stop-color:#EC7802"/>
						<stop  offset="0.9306" style="stop-color:#FAB801"/>
						<stop  offset="0.9947" style="stop-color:#FFCC01"/>
					</linearGradient>
					<path style="fill:url(#SVGID_00000035506038935439838630000002657343623858119815_);" d="M829.5,466.6c0,0-3,35.8-76.9,69.5
						c0,0,57.3-82.8,23-205c0,0,2.5,81-69,156.6c-71.5,75.4-44,135.7-44,135.7s-59.4-68.5,4.2-148.5c-9.9,8.1-21.7,19.9-31.7,36.2
						c-27.4,44.6-22,91.2-19.4,107.3c1.9,6.6,4.9,14.4,9.6,22.6c12,20.8,28.6,32.5,38.5,38.3c0,0,11.3-59.7,96.5-98.9l26.7-14.3
						C787,565.9,833.2,511,829.5,466.6z"/>
				</g>
			</g>
		</g>
	</g>
	
		<image style="overflow:visible;enable-background:new    ;" width="10416" height="1429" xlink:href="F8450371.png"  transform="matrix(0.1072 0 0 0.1072 150.6812 783.8734)">
	</image>
</g>
</svg>
